<?xml version="1.0" standalone="no"?>
<!DOCTYPE svg PUBLIC "-//W3C//DTD SVG 20010904//EN"
 "http://www.w3.org/TR/2001/REC-SVG-20010904/DTD/svg10.dtd">
<svg version="1.0" xmlns="http://www.w3.org/2000/svg"
 width="700.000000pt" height="700.000000pt" viewBox="0 0 700.000000 700.000000"
 preserveAspectRatio="xMidYMid meet">
<metadata>
Created by potrace 1.14, written by Peter Selinger 2001-2017
</metadata>
<g transform="translate(0.000000,700.000000) scale(0.100000,-0.100000)"
fill="#000000" stroke="none">
<path d="M525 6124 l-525 -876 2 -2491 3 -2492 26 -56 c37 -79 90 -133 167
-171 l67 -33 3235 0 3235 0 67 33 c77 38 130 92 167 171 l26 56 3 2492 2 2491
-525 876 -526 876 -2449 0 -2449 0 -526 -876z m5498 -264 l366 -610 -2889 0
-2889 0 366 610 366 610 2157 0 2157 0 366 -610z m-4196 -1585 c65 -19 134
-81 160 -142 14 -33 22 -82 27 -159 22 -384 159 -709 408 -970 241 -252 550
-409 895 -455 123 -16 373 -6 488 21 303 69 527 191 741 405 277 276 416 592
440 1000 8 135 29 190 92 245 45 40 119 70 172 70 92 0 196 -68 236 -154 20
-43 24 -67 24 -153 0 -389 -151 -833 -396 -1158 -493 -657 -1315 -949 -2108
-750 -797 201 -1394 874 -1501 1692 -8 63 -15 160 -15 216 0 123 22 182 91
240 72 62 154 79 246 52z"/>
</g>
</svg>
